<?xml version="1.0" standalone="no"?><!DOCTYPE svg PUBLIC "-//W3C//DTD SVG 1.1//EN" "http://www.w3.org/Graphics/SVG/1.1/DTD/svg11.dtd"><svg class="icon" width="16px" height="16.00px" viewBox="0 0 1024 1024" version="1.1" xmlns="http://www.w3.org/2000/svg"><path fill="#515151" d="M991.47706027 126.62591488v802.11582862c0 4.48109454 0 4.48109454-4.48109454 8.96218795-4.48109454 22.40547043-22.40547043 40.32984633-49.29203428 49.29203428-4.48109454 0-8.96218795 4.48109454-13.44328135 4.48109454H126.62591488h-4.48109454c-26.88656384-8.96218795-49.29203427-31.36765838-58.25422223-58.25422222v-806.59692317c8.96218795-40.32984633 40.32984633-62.73531677 76.17859812-62.73531677H919.77955555c22.40547043 0 44.81093973 13.44328249 58.25422223 31.36765839 4.48109454 8.96218795 8.96218795 17.92437589 13.44328249 31.36765838z m-533.25018795 345.04423879v4.48109454c-17.92437589 80.65969266-35.84875179 156.83829077-53.77312882 237.4979823-8.96218795 26.88656384-13.44328249 58.25422222-13.44328249 85.14078606 0 44.81093973 35.84875179 76.17859811 76.17859926 80.65969266h80.65969152c4.48109454 0 8.96218795 0 8.96218794-4.48109341 31.36765838-49.29203427 67.21641017-98.58406855 98.58406856-152.35719737l4.48109454-4.4810934h-49.29203428c-4.48109454 0-8.96218795 0-8.96218794 4.4810934-13.44328249 22.40547043-31.36765838 44.81093973-44.81094088 67.21641017-4.48109454 8.96218795-8.96218795 8.96218795-17.92437589 0-4.48109454-4.48109454-4.48109454-8.96218795-4.48109341-13.44328135-4.48109454-13.44328249-4.48109454-22.40547043 0-35.84875292l62.73531563-277.82782862 8.96218795-44.81093974h-188.20594802v53.77312768h40.32984633z m94.10297401-134.43282034c44.81093973 0 80.65969266-35.84875179 80.65969266-80.65969266S601.62188061 175.91794915 556.81093973 175.91794915s-85.14078606 35.84875179-85.14078606 80.65969152 35.84875179 80.65969266 80.65969266 80.65969266z" /></svg>