<?xml version="1.0" standalone="no"?><!DOCTYPE svg PUBLIC "-//W3C//DTD SVG 1.1//EN" "http://www.w3.org/Graphics/SVG/1.1/DTD/svg11.dtd"><svg class="icon" width="16px" height="16.00px" viewBox="0 0 1024 1024" version="1.1" xmlns="http://www.w3.org/2000/svg"><path fill="#515151" d="M938.666 553.854c0 23.424-9.417 44.728-25.166 60.038L614.833 912.119c-15.374 15.771-36.707 25.172-60.166 25.172-23.5 0-44.833-9.4-60.166-24.715L110.5 529.139c-15.791-15.768-25.167-37.067-25.167-60.492v-298.23c0-46.89 38.417-85.209 85.334-85.209h298.666c23.459 0 44.793 9.362 60.166 24.715L913.5 493.361c15.334 15.31 25.166 37.028 25.166 60.493zM298.667 234.323c0-35.366-28.584-63.906-64-63.906-35.417 0-64 28.541-64 63.906 0 35.365 28.583 63.906 64 63.906 35.416 0 64-28.541 64-63.906z" /></svg>