<?xml version="1.0" standalone="no"?><!DOCTYPE svg PUBLIC "-//W3C//DTD SVG 1.1//EN" "http://www.w3.org/Graphics/SVG/1.1/DTD/svg11.dtd"><svg class="icon" width="16px" height="16.00px" viewBox="0 0 1024 1024" version="1.1" xmlns="http://www.w3.org/2000/svg"><path fill="#515151" d="M512 425.984l344.32-344.32a60.416 60.416 0 0 1 85.76 0.32 60.992 60.992 0 0 1 0.32 85.632L598.016 512l344.32 344.32a60.416 60.416 0 0 1-0.32 85.76 60.992 60.992 0 0 1-85.632 0.32L512 598.016l-344.32 344.32a60.416 60.416 0 0 1-85.76-0.32 60.992 60.992 0 0 1-0.32-85.632L425.984 512l-344.32-344.32a60.416 60.416 0 0 1 0.32-85.76 60.992 60.992 0 0 1 85.632-0.32L512 425.984z" /></svg>