<?xml version="1.0" standalone="no"?><!DOCTYPE svg PUBLIC "-//W3C//DTD SVG 1.1//EN" "http://www.w3.org/Graphics/SVG/1.1/DTD/svg11.dtd"><svg class="icon" width="16px" height="16.00px" viewBox="0 0 1024 1024" version="1.1" xmlns="http://www.w3.org/2000/svg"><path fill="#515151" d="M 971.674 445.235 L 594.842 53.3504 a 122.266 122.266 0 0 0 -176.538 0 L 41.5744 445.235 c -38.912 40.96 -33.8944 75.4688 -27.5456 90.0096 a 65.536 65.536 0 0 0 64.6144 38.912 h 55.296 v 301.466 c 0 68.4032 49.152 133.12 119.091 133.12 h 160.358 V 689.459 c 0 -34.2016 -5.12 -53.248 29.7984 -53.248 h 126.771 c 35.0208 0 29.7984 19.0464 29.7984 53.248 v 319.078 h 160.461 c 69.8368 0 119.091 -64.512 119.091 -133.12 V 574.157 h 55.1936 a 65.536 65.536 0 0 0 64.6144 -38.912 c 6.4512 -14.5408 11.4688 -49.5616 -27.4432 -90.0096 Z"  /></svg>