<?xml version="1.0" standalone="no"?><!DOCTYPE svg PUBLIC "-//W3C//DTD SVG 1.1//EN" "http://www.w3.org/Graphics/SVG/1.1/DTD/svg11.dtd"><svg class="icon" width="16px" height="10.24px" viewBox="0 0 1600 1024" version="1.1" xmlns="http://www.w3.org/2000/svg"><path d="M748.8 878.016l-290.56 127.04c-22.528 19.648-60.992 5.76-60.992-22.144v-104.96H226.24C101.312 878.016 0 793.6 0 689.408V246.72C0 142.592 101.312 58.112 226.24 58.112h1136.448c124.992 0 226.304 84.48 226.304 188.608v442.624c0 104.192-101.312 188.672-226.304 188.672H748.8z" fill="#F43530" /><path d="M310.144 312.576h52.416l158.08 230.72h1.856v-230.72h52.8v319.872h-51.072L364.288 398.592h-1.728v233.856h-52.48V312.576z m327.872 0H868.8v44.8H690.496v88.704h167.488v44.8H690.56v96.768h185.92v44.8H638.016V312.576z m258.56 0h59.072l60.032 243.264h1.856l63.168-243.264h54.208l63.104 243.264h1.792l60.096-243.264h59.136l-92.288 319.872h-55.616l-62.272-240.576h-1.664l-62.72 240.576h-56l-91.904-319.872z" fill="#FFFFFF" /></svg>