<?xml version="1.0" standalone="no"?><!DOCTYPE svg PUBLIC "-//W3C//DTD SVG 1.1//EN" "http://www.w3.org/Graphics/SVG/1.1/DTD/svg11.dtd"><svg class="icon" width="16px" height="16.00px" viewBox="0 0 1024 1024" version="1.1" xmlns="http://www.w3.org/2000/svg"><path d="M514.759407 509.02064m-509.02064 0a509.02064 509.02064 0 1 0 1018.04128 0 509.02064 509.02064 0 1 0-1018.04128 0Z" fill="#FFE529" /><path d="M267.742477 373.10984m-107.536896 0a107.536896 107.536896 0 1 0 215.073793 0 107.536896 107.536896 0 1 0-215.073793 0Z" fill="#FFFEF3" /><path d="M751.638515 373.10984m-107.536896 0a107.536896 107.536896 0 1 0 215.073793 0 107.536896 107.536896 0 1 0-215.073793 0Z" fill="#FFFEF3" /><path d="M751.638515 641.942083c0 32.622991-32.67298 86.171487-84.29189 127.872527-15.716623-42.350901-80.322743-74.104079-157.656129-74.104079s-141.939505 31.753178-157.656128 74.104079c-51.61891-41.701041-84.29189-95.259534-84.291891-127.872527 0-107.536896 161.295347-26.884224 241.948019-26.884224s241.948019-80.642674 241.948019 26.884224z" fill="#FFFEF3" /><path d="M667.346625 769.81461c-42.330905 34.142665-97.439066 60.307043-157.656129 60.307044-60.217063 0-115.325223-26.164379-157.656128-60.307044 15.716623-42.350901 80.322743-74.104079 157.656128-74.104079s141.939505 31.753178 157.656129 74.104079z" fill="#FFAEAE" /></svg>