<?xml version="1.0" standalone="no"?><!DOCTYPE svg PUBLIC "-//W3C//DTD SVG 1.1//EN" "http://www.w3.org/Graphics/SVG/1.1/DTD/svg11.dtd"><svg class="icon" width="16px" height="16.00px" viewBox="0 0 1024 1024" version="1.1" xmlns="http://www.w3.org/2000/svg"><path d="M583.572042 886.853573h406.241312V1024H583.572042z" fill="#71CDE1" /><path d="M140.145256 658.942601h421.83522V1024H140.145256z" fill="#FFD552" /><path d="M432.830925 596.167122L476.014057 272.693479c48.381101 11.195627 84.766888 54.378758 84.766888 105.95861V596.167122h-127.95002zM298.483405 596.167122H155.739164v-43.183131l31.187818 32.787192v-119.553299c0.799688 0.399844 1.599375 0.399844 2.399063 0.399843 0.799688 0 1.199531 0 1.999219 0.399844h5.597813c3.598594-0.399844 6.797345-1.599375 9.996095-3.19875 1.599375-0.799688 3.19875-1.999219 4.398282-3.198751 0.799688-0.399844 1.199531-1.199531 1.999219-1.999219 5.19797-5.19797 8.39672-12.395158 8.39672-19.99219 0-2.399063-0.399844-5.19797-1.199531-7.597033-0.799688-2.399063-1.199531-5.19797-1.199532-7.597032 0 0 0-0.399844 4.798126-15.993753 0.799688-1.199531 1.599375-1.999219 2.399063-2.798906l1.199531-1.199532c0.799688-0.799688 1.999219-1.599375 2.798907-2.399063l3.198751-1.999219c2.399063-1.199531 4.398282-3.19875 6.397501-4.798125 0.799688-0.799688 1.199531-1.599375 1.999219-2.399063 3.998438-5.19797 6.397501-11.595471 6.397501-17.992972l-2.798907-12.395158c-0.799688-1.599375-1.599375-3.19875-2.798907-4.798126-0.799688-1.199531-1.599375-1.999219-2.399063-2.798906L234.108551 348.263959c-1.599375-0.799688-3.19875-1.999219-4.798125-3.19875l-1.199532-1.199532-1.199531-1.199531c-0.799688-0.799688-1.599375-1.999219-2.399063-2.798907-3.19875-4.798126-4.798126-10.395939-4.798126-15.993752 0-2.399063 0.399844-5.19797 1.199532-7.597032 2.798907-10.395939-0.399844-20.392034-6.797345-27.18938 12.395158-7.597032 26.389692-13.194846 40.784069-15.993752L298.483405 596.167122z" fill="#E0E0E0" /><path d="M364.857478 247.903163c-68.373292 0-123.951581-55.57829-123.951582-123.951582s55.57829-123.951581 123.951582-123.951581 123.951581 55.57829 123.951581 123.951581-55.57829 123.951581-123.951581 123.951582z m0-235.108161C303.681374 12.795002 253.700898 62.775478 253.700898 124.351425s49.980476 111.156579 111.15658 111.15658S476.014057 185.527528 476.014057 124.351425 426.433424 12.795002 364.857478 12.795002z" fill="#4A555F" /><path d="M364.857478 216.715346c-51.180008 0-92.36392-41.583756-92.363921-92.363921S314.077314 31.587661 364.857478 31.587661s92.36392 41.583756 92.36392 92.36392S416.037485 216.715346 364.857478 216.715346z" fill="#FFD552" /><path d="M595.9672 596.167122h-12.395158V382.250683c0-73.971105-60.376415-134.34752-134.34752-134.34752H268.495119c-34.786412 0-67.973448 13.194846-92.763764 37.185474l-4.398282-4.398282h-6.397501v-2.798906l1.999219-1.999219c27.589223-26.389692 63.575166-40.784069 101.560328-40.784069h180.729403c81.168294 0 146.742679 65.974229 146.742678 146.742679V596.167122z" fill="#4A555F" /><path d="M318.075752 596.96681l-29.588442-229.110504H288.087466l0.399844-0.799687-16.79344-131.548614h38.385005L350.4631 284.28895 301.682155 369.455681l29.188599 225.911754-12.795002 1.599375z m-31.987505-349.063647l13.194846 101.160484 36.385786-63.575166-31.587661-37.585318h-17.992971zM411.23936 596.96681l-12.395159-1.599375 29.188599-226.311597-44.782507-86.766107 40.384225-46.781726h34.386568l-16.793441 131.548614 0.399844 1.199531-0.799687 0.399844-29.588442 228.310816z m-12.795002-313.077704l32.787192 63.175322 12.795002-99.161265h-14.394377l-31.187817 35.985943zM359.259664 311.878173h12.395158V596.167122h-12.395158z" fill="#4A555F" /><path d="M365.257321 321.07458l-27.189379-32.387348 9.596252-7.996877 17.992971 21.591566 20.392035-23.190941 9.596251 7.996876z" fill="#4A555F" /><path d="M398.044514 383.050371m-11.995314 0a11.995314 11.995314 0 1 0 23.990628 0 11.995314 11.995314 0 1 0-23.990628 0Z" fill="#4A555F" /><path d="M398.044514 471.815697m-11.995314 0a11.995314 11.995314 0 1 0 23.990628 0 11.995314 11.995314 0 1 0-23.990628 0Z" fill="#4A555F" /><path d="M398.044514 556.982429m-11.995314 0a11.995314 11.995314 0 1 0 23.990628 0 11.995314 11.995314 0 1 0-23.990628 0Z" fill="#4A555F" /><path d="M526.394377 459.420539h12.395158V596.167122h-12.395158z" fill="#4A555F" /><path d="M865.062085 812.882468l28.788755-219.914096c29.188598 9.196408 49.980476 36.785631 49.980476 67.973448v152.340492h-78.769231zM670.338149 812.882468v-152.340492c0-29.188598 26.389692-58.77704 59.976572-67.973448l29.188598 220.31394h-89.16517z" fill="#E0E0E0" /><path d="M811.882858 540.588832c-31.987505 0-57.577509-25.989848-57.577509-57.577508 0-31.987505 25.989848-57.577509 57.577509-57.577509 31.987505 0 57.577509 25.989848 57.577509 57.577509s-25.989848 57.577509-57.577509 57.577508z" fill="#FFD552" /><path d="M811.882858 571.376806c-48.780945 0-88.365482-39.584537-88.365482-88.365482s39.584537-88.365482 88.365482-88.365483c48.780945 0 88.365482 39.584537 88.365482 88.365483s-39.584537 88.365482-88.365482 88.365482z m0-164.335806c-41.9836 0-75.970324 33.986724-75.970324 75.970324s33.986724 75.970324 75.970324 75.970324 75.970324-33.986724 75.970324-75.970324-34.386568-75.970324-75.970324-75.970324z" fill="#4A555F" /><path d="M975.418977 812.882468h-12.395158v-149.541586c0-50.780164-41.183913-91.964077-91.964077-91.964076h-126.350644c-50.780164 0-91.964077 41.183913-91.964077 91.964076v149.541586H639.95002v-149.541586c0-57.577509 46.781726-104.759078 104.759078-104.759078h126.350644c57.577509 0 104.759078 46.781726 104.759079 104.759078v149.541586z" fill="#4A555F" /><path d="M777.096447 813.682155l-32.787193-255.100351h29.988286l29.588442 35.586099-34.386568 60.376416 20.392035 157.538461-12.795002 1.599375z m-18.392816-242.305349l7.996877 63.175322 21.991409-38.385006-20.392034-24.390472h-9.596252zM846.269426 813.682155l-12.395158-1.599375 20.392034-157.538461-31.587661-61.575947 29.588442-34.386568h26.789536l-11.995315 93.563452v0.399844l-20.791878 161.137055z m-8.796564-218.714564l19.592347 37.985162 7.996876-61.575947h-7.197188l-20.392035 23.590785zM805.885201 614.160094h12.395158v199.122218h-12.395158z" fill="#4A555F" /><path d="M811.882858 623.756345l-20.392034-24.390472 9.596251-7.996877 11.195627 13.194846 12.795002-14.794221 9.596251 8.39672z" fill="#4A555F" /><path d="M835.073799 663.740726m-8.39672 0a8.39672 8.39672 0 1 0 16.79344 0 8.39672 8.39672 0 1 0-16.79344 0Z" fill="#4A555F" /><path d="M835.073799 726.116361m-8.39672 0a8.39672 8.39672 0 1 0 16.79344 0 8.39672 8.39672 0 1 0-16.79344 0Z" fill="#4A555F" /><path d="M835.073799 785.693089m-8.39672 0a8.39672 8.39672 0 1 0 16.79344 0 8.39672 8.39672 0 1 0-16.79344 0Z" fill="#4A555F" /><path d="M922.639594 717.719641h12.395158v95.562671h-12.395158z" fill="#4A555F" /><path d="M683.532995 717.719641h12.395158v95.562671h-12.395158z" fill="#4A555F" /><path d="M1022.600547 1024h-12.395158v-157.938305H583.572042v-225.112066H119.353378v381.051152h-12.395159V628.154627H595.9672v225.112066h426.633347z" fill="#4A555F" /><path d="M315.676689 932.835611h-12.395158v-166.734869h-6.397501l-14.394378 18.792659-9.996095-7.597032 17.992972-23.590785h25.19016z" fill="#4A555F" /><path d="M279.290902 926.43811h59.976572v12.395158h-59.976572z" fill="#4A555F" /><path d="M777.096447 1009.205779h-56.777821v-15.194065l46.781725-51.979695c-1.199531-8.39672-8.39672-15.194065-17.193283-15.194065-9.596251 0-17.193284 7.597032-17.193284 17.193284h-12.395158c0-16.393596 13.194846-29.588442 29.588442-29.588442 16.393596 0 29.588442 13.194846 29.588442 29.588442v2.399063l-45.182351 49.980476h42.383444v12.795002z" fill="#4A555F" /><path d="M791.890668 918.04139h12.395158V960.02499H791.890668z" fill="#4A555F" /><path d="M829.076142 960.02499h-12.395158v-27.989067c0-1.599375-2.399063-2.798907-3.598594-1.599375l-10.795783 9.196408-7.996876-9.596252 10.795782-9.196407c2.798907-2.399063 5.997657-3.598594 9.596252-3.598595 7.996876 0 14.794221 6.397501 14.794221 14.794221v27.989067z" fill="#4A555F" /><path d="M859.864116 903.247169h12.395158V960.02499H859.864116z" fill="#4A555F" /><path d="M855.865677 960.824678c-11.595471 0-21.191722-9.596251-21.191722-21.191722s9.596251-21.191722 21.191722-21.191722c5.19797 0 10.395939 1.999219 14.394378 5.597813l1.999219 1.999219v27.189379l-1.999219 1.99922c-3.998438 3.598594-9.196408 5.597813-14.394378 5.597813z m0-29.588442c-4.798126 0-8.39672 3.998438-8.39672 8.39672 0 4.798126 3.998438 8.39672 8.39672 8.39672 1.199531 0 2.798907-0.399844 3.598595-0.799688V932.035923c-0.799688-0.799688-2.399063-0.799688-3.598595-0.799687z" fill="#4A555F" /><path d="M376.852792 824.477938c-11.595471 0-21.191722-9.596251-21.191722-21.191722H368.056228c0 4.798126 3.998438 8.796564 8.796564 8.796564s8.796564-3.998438 8.796564-8.796564c0-3.998438-3.19875-7.597032-7.597033-7.597032h-2.399063c-11.195627 0-19.992191-8.796564-19.99219-19.992191v-1.199531c0-11.595471 9.596251-21.191722 21.191722-21.191722s21.191722 9.596251 21.191722 21.191722l-12.395158 0.399844v-0.399844c0-4.798126-3.998438-8.796564-8.796564-8.796564s-8.796564 3.998438-8.796564 8.796564v1.199531c0 3.998438 3.19875 7.597032 7.597032 7.597033h2.399063c11.195627 0 19.992191 8.796564 19.992191 19.99219 0 11.595471-9.596251 21.191722-21.191722 21.191722z" fill="#4A555F" /><path d="M448.02499 822.478719h-18.392815c-9.996095 0-18.392815-8.39672-18.392815-18.392815v-75.970324h12.395158v75.970324c0 3.19875 2.798907 5.997657 5.997657 5.997657h18.392815v12.395158z" fill="#4A555F" /><path d="M417.636861 764.90121h28.38891v12.395159h-28.38891z" fill="#4A555F" /><path d="M186.926982 465.81804v119.553299L128.149941 523.795392l-58.77704 61.575947v-119.553299c0.399844 0 0.799688-0.399844 1.599375-0.399844 2.399063-0.799688 5.19797-1.199531 7.597033-1.199531 9.996095 0 19.592347 5.19797 24.790316 14.394377 5.597813 9.596251 15.194065 14.394377 24.790316 14.394377 9.596251 0 19.592347-4.798126 24.790317-14.394377 5.19797-9.196408 14.794221-14.394377 24.790316-14.394377 2.399063 0 5.19797 0.399844 7.597032 1.199531 0.799688 0.399844 1.199531 0.399844 1.599376 0.399844z" fill="#FFD552" /><path d="M234.108551 348.263959c-9.196408-5.19797-14.394377-14.794221-14.394377-24.790316 0-2.399063 0.399844-5.19797 1.199532-7.597032 5.19797-18.792659-9.196408-36.385787-27.589223-36.385787-2.399063 0-5.19797 0.399844-7.597033 1.199531-12.795002 3.598594-25.989848-1.999219-32.387348-13.594689-5.997657-9.996095-15.593909-14.794221-25.190161-14.794221s-19.592347 4.798126-24.790316 14.394377c-5.19797 9.196408-14.794221 14.394377-24.790316 14.394377-2.399063 0-5.19797-0.399844-7.597033-1.199531-18.792659-5.19797-36.385787 9.196408-36.385786 27.589223 0 2.399063 0.399844 5.19797 1.199531 7.597032 0.799688 2.399063 1.199531 5.19797 1.199532 7.597032 0 9.996095-5.19797 19.592347-14.394378 24.790317C12.994924 353.062085 8.196798 362.658337 8.196798 372.254588c0 9.596251 4.798126 19.592347 14.394377 24.790316 9.196408 5.19797 14.394377 14.794221 14.394378 24.790317 0 2.399063-0.399844 5.19797-1.199532 7.597032-5.19797 18.792659 9.196408 36.385787 27.589223 36.385787 2.399063 0 5.19797-0.399844 7.597032-1.199532 2.399063-0.799688 5.19797-1.199531 7.597033-1.199531 9.996095 0 19.592347 5.19797 24.790316 14.394377 5.597813 9.596251 15.194065 14.394377 24.790316 14.394377s19.592347-4.798126 24.790317-14.394377c5.19797-9.196408 14.794221-14.394377 24.790316-14.394377 2.399063 0 5.19797 0.399844 7.597032 1.199531 18.792659 5.19797 36.385787-9.196408 36.385787-27.589223 0-2.399063-0.399844-5.19797-1.199531-7.597032-0.799688-2.399063-1.199531-5.19797-1.199532-7.597032 0-9.996095 5.19797-19.592347 14.394378-24.790317 9.596251-5.597813 14.394377-15.194065 14.394377-24.790316 0.399844-8.796564-4.398282-18.792659-13.994534-23.990629zM128.149941 447.825068c-41.183913 0-74.770793-33.58688-74.770792-74.770792 0-41.183913 33.58688-74.770793 74.770792-74.770793s74.770793 33.58688 74.770793 74.770793c0 41.183913-33.58688 74.770793-74.770793 74.770792z" fill="#FFD552" /><path d="M128.149941 454.222569c-44.782507 0-81.168294-36.385787-81.168293-81.168293S83.367435 291.885982 128.149941 291.885982 209.318235 328.271769 209.318235 373.054276s-36.385787 81.168294-81.168294 81.168293zM128.149941 304.28114c-37.985162 0-68.773135 30.787973-68.773135 68.773136s30.787973 68.373292 68.773135 68.373291 68.773135-30.787973 68.773136-68.373291S165.73526 304.28114 128.149941 304.28114z" fill="#4A555F" /><path d="M62.9754 600.965248v-140.345178l5.19797-0.799687c0.399844 0 0.399844 0 0.799687-0.399844 2.798907-0.799688 5.997657-1.199531 9.196408-1.199532 12.395158 0 23.990629 6.797345 30.38813 17.593128 3.998438 7.197189 11.195627 11.195627 19.592346 11.195627 7.996876 0 15.593909-4.398282 19.592347-11.195627 5.997657-10.795783 17.593128-17.593128 30.38813-17.593128 3.19875 0 6.397501 0.399844 9.196407 1.199532h0.799688l5.19797 0.799687v140.345178L128.149941 532.9918l-65.174541 67.973448zM128.149941 514.598985l52.779383 55.178446v-98.761422c-8.796564-1.199531-17.992971 3.19875-22.391253 11.195627-6.397501 11.195627-17.593128 17.593128-30.38813 17.593128-12.795002 0-23.990629-6.797345-30.388129-17.593128-4.398282-7.996876-13.59469-12.395158-22.391254-11.195627v98.761422L128.149941 514.598985z" fill="#4A555F" /><path d="M128.149941 499.804764c-12.795002 0-23.990629-6.797345-30.388129-17.593128-4.798126-8.796564-15.593909-13.194846-25.590004-10.395939-3.19875 0.799688-6.397501 1.199531-9.596252 1.199531-10.795783 0-21.191722-5.19797-27.589223-13.994533-6.797345-8.796564-8.796564-19.592347-5.997657-30.38813 2.798907-9.996095-1.599375-20.392034-10.395939-25.590004C7.397111 396.645061 0.99961 385.449434 0.99961 372.654432c0-12.795002 6.797345-23.990629 17.593127-30.38813 8.796564-5.19797 13.194846-15.593909 10.395939-25.590004-2.798907-10.395939-0.799688-21.591566 5.997657-30.388129 8.39672-11.195627 23.590785-16.393596 37.185475-12.395158 1.999219 0.399844 3.998438 0.799688 5.997657 0.799687 7.996876 0 15.593909-4.398282 19.592347-11.195627 6.397501-11.195627 17.593128-17.593128 30.388129-17.593127s23.990629 6.797345 30.38813 17.593127c3.998438 7.197189 11.595471 11.195627 19.592347 11.195627 1.999219 0 3.998438-0.399844 5.997657-0.799687 13.59469-3.598594 28.388911 1.199531 37.185474 12.395158 6.797345 8.796564 8.796564 19.592347 5.997658 30.388129-2.798907 9.996095 1.599375 20.392034 10.395939 25.590004 11.195627 6.397501 17.593128 17.593128 17.593127 30.38813 0 12.795002-6.797345 23.990629-17.593127 30.388129-8.796564 5.19797-13.194846 15.593909-10.395939 25.590004 2.798907 10.395939 0.799688 21.591566-5.997658 30.38813-8.39672 11.195627-23.590785 16.393596-37.185474 12.395158-9.596251-2.798907-20.392034 1.599375-25.590004 10.395939-6.397501 11.595471-17.593128 17.992971-30.38813 17.992972z m-49.980476-41.583757c12.395158 0 23.990629 6.797345 30.38813 17.593128 3.998438 7.197189 11.195627 11.195627 19.592346 11.195627s15.593909-4.398282 19.592347-11.195627c5.997657-10.795783 17.992971-17.593128 30.38813-17.593128 3.19875 0 6.397501 0.399844 9.196407 1.199532 8.796564 2.399063 18.392815-0.799688 23.990629-7.996876 4.398282-5.597813 5.597813-12.795002 3.598594-19.592347-4.398282-15.593909 2.399063-31.587661 16.393597-39.584537 7.197189-3.998438 11.195627-11.195627 11.195626-19.592347 0-7.996876-4.398282-15.593909-11.195626-19.592347-13.994533-7.996876-20.791878-23.990629-16.393597-39.584537 1.999219-6.797345 0.399844-13.994533-3.598594-19.592347-5.597813-7.197189-14.794221-10.395939-23.990629-7.996876-3.19875 0.799688-5.997657 1.199531-9.196407 1.199531-12.395158 0-23.990629-6.797345-30.38813-17.593127-3.998438-7.197189-11.195627-11.195627-19.592347-11.195627s-15.593909 4.398282-19.592346 11.195627c-5.997657 10.795783-17.992971 17.593128-30.38813 17.593127-3.19875 0-6.397501-0.399844-9.196408-1.199531-8.796564-2.399063-18.392815 0.799688-23.990628 7.996876-4.398282 5.597813-5.597813 12.795002-3.598595 19.592347 4.398282 15.593909-2.399063 31.587661-16.393596 39.584537-7.197189 3.998438-11.195627 11.195627-11.195627 19.592347 0 7.996876 4.398282 15.593909 11.195627 19.592347 13.994533 7.996876 20.791878 24.390472 16.393596 39.584537-1.999219 6.797345-0.399844 13.994533 3.598595 19.592347 5.597813 7.197189 14.794221 10.395939 23.990628 7.996876 3.19875-0.799688 5.997657-1.199531 9.196408-1.199532z" fill="#4A555F" /><path d="M116.154627 407.440843l-30.38813-33.187036 9.196408-8.39672 21.591566 23.590785 44.782507-46.381882 8.796564 8.796564z" fill="#4A555F" /></svg>